<svg xmlns="http://www.w3.org/2000/svg" viewBox="0 0 206.34 57.93"><defs><style>.cls-1{fill:#fff;}</style></defs><title>Asset 1</title><g id="Layer_2" data-name="Layer 2"><g id="Layer_1-2" data-name="Layer 1"><path class="cls-1" d="M65.59,25.13V13.21q0-5.62-3.45-8.78T52,1.28H0V6.39H11.07V56.65h6V6.39H39.19V56.65h6V37.06H52L62,56.65h6.56L58.1,36.21Q65.59,33.82,65.59,25.13ZM52,31.95h-6.9V6.39H52a8.06,8.06,0,0,1,5.62,1.79,6.47,6.47,0,0,1,2,5V25.13Q59.63,31.95,52,31.95Z"/><path class="cls-1" d="M83.91,1.28,71.39,56.65h6l2.9-12.78H96.52l2.9,12.78h6L92.86,1.28ZM81.36,38.76l7-30.84,7,30.84Z"/><path class="cls-1" d="M130.56,3.11Q127,0,120,0T109.52,3.11Q106,6.22,106,11.93V46q0,5.71,3.58,8.82t10.56,3.11q7,0,10.48-3.11T134.14,46V36.32h-6V46q0,6.82-8.09,6.81T112,46V11.93q0-6.81,8.09-6.82t8.09,6.82V20h6V11.93Q134.14,6.22,130.56,3.11Z"/><path class="cls-1" d="M195.87,36.21q7.5-2.38,7.5-11.07V13.21q0-5.62-3.45-8.78T189.82,1.28H139V56.65h25.13V51.54H145V31.09h14.91V26H145V6.39H177V56.65h6V37.06h6.9l10,19.59h6.56Zm-6-4.26h-6.9V6.39h6.9a8.06,8.06,0,0,1,5.62,1.79,6.47,6.47,0,0,1,2,5V25.13Q197.4,31.95,189.82,31.95Z"/></g></g></svg>